<svg width="16" height="17" viewBox="0 0 16 17" fill="none" xmlns="http://www.w3.org/2000/svg">
	<path fill-rule="evenodd" clip-rule="evenodd" d="M12.0013 6.66667C12.0013 9.244 9.91196 11.3333 7.33464 11.3333C4.75731 11.3333 2.66797 9.244 2.66797 6.66667C2.66797 4.08934 4.75731 2 7.33464 2C9.91196 2 12.0013 4.08934 12.0013 6.66667ZM10.8686 12.3206C9.84409 12.9624 8.63268 13.3333 7.33464 13.3333C3.65274 13.3333 0.667969 10.3486 0.667969 6.66667C0.667969 2.98477 3.65274 0 7.33464 0C11.0165 0 14.0013 2.98477 14.0013 6.66667C14.0013 8.32704 13.3943 9.84564 12.3901 11.0127L16.2037 14.7895L14.7963 16.2105L10.8686 12.3206Z" fill="white" />
</svg>
