<svg width="128" height="128" viewBox="0 0 128 128" fill="none" xmlns="http://www.w3.org/2000/svg">
<path d="M108.047 117.333C108.047 123.224 103.271 127.999 97.38 127.999C91.489 127.999 86.7134 123.224 86.7134 117.333C86.7134 111.442 91.489 106.666 97.38 106.666C103.271 106.666 108.047 111.442 108.047 117.333Z" fill="#BFBFBF"/>
<path d="M43.703 117.333C43.703 123.224 38.9273 127.999 33.0363 127.999C27.1453 127.999 22.3696 123.224 22.3696 117.333C22.3696 111.442 27.1453 106.666 33.0363 106.666C38.9273 106.666 43.703 111.442 43.703 117.333Z" fill="#BFBFBF"/>
<path fill-rule="evenodd" clip-rule="evenodd" d="M0 5.33398L22.5755 5.33398L43.3687 76.2981L28.1884 90.6673H122.667V101.334H14.7957C12.6119 101.334 10.6487 100.003 9.8408 97.9738C9.03286 95.945 9.5434 93.6286 11.1294 92.1273L31.2979 73.0365L14.5858 16.0007H0V5.33398Z" fill="#BFBFBF"/>
<path fill-rule="evenodd" clip-rule="evenodd" d="M90.1069 26.6667H21.3335V16H101.893L98.2004 52.9303L32.4622 58.6466L31.5381 48.0201L88.4666 43.0698L90.1069 26.6667Z" fill="#BFBFBF"/>
</svg>
